<svg xmlns="http://www.w3.org/2000/svg" viewBox="0 0 24 24" fill="none" stroke="currentColor" stroke-width="1.5" stroke-linecap="round" stroke-linejoin="round">
  <!-- Speech bubble outline -->
  <path d="M 4 3 C 3 3 2 4 2 5 L 2 16 C 2 17 3 18 4 18 L 9.5 18 L 12 22 L 14.5 18 L 20 18 C 21 18 22 17 22 16 L 22 5 C 22 4 21 3 20 3 Z" />
  <!-- Letter S -->
  <path d="M 14.5 7.5 C 14.5 6.5 13.5 5.5 12 5.5 C 10.5 5.5 9.5 6.5 9.5 7.5 C 9.5 8.5 10.5 9.5 12 10 C 13.5 10.5 14.5 11.5 14.5 12.5 C 14.5 13.5 13.5 14.5 12 14.5 C 10.5 14.5 9.5 13.5 9.5 12.5" />
</svg>
